<svg width="156" height="157" viewBox="0 0 156 157" fill="none" xmlns="http://www.w3.org/2000/svg">
<path id="desktop-icon" d="M151.875 80.3405V21.0938C151.875 11.3205 143.903 3.42383 134.13 3.51646L20.9271 4.58948C11.2844 4.68088 3.51562 12.5237 3.51562 22.1668V106.708C3.51562 116.416 11.3856 124.286 21.0937 124.286H68.2031C68.5915 124.286 68.9062 124.601 68.9062 124.989V129.032V139.403C68.9062 139.791 68.5915 140.106 68.2031 140.106H36.8091C36.6495 140.106 36.4946 140.16 36.3699 140.26L22.3074 151.51C21.7884 151.925 22.082 152.762 22.7466 152.762H116.234C116.431 152.762 116.619 152.68 116.752 152.534L122.344 146.434L127.064 141.284C127.478 140.833 127.158 140.106 126.546 140.106H85.4297C85.0414 140.106 84.7266 139.791 84.7266 139.403V129.032V124.989C84.7266 124.601 85.0414 124.286 85.4297 124.286H134.297C144.005 124.286 151.875 116.416 151.875 106.708V100.731M56.9531 16.7076H98.7891" stroke="url(#paint0_radial_15_112)" stroke-width="7.03125" stroke-linecap="round"/>
<defs>
<radialGradient id="paint0_radial_15_112" cx="0" cy="0" r="1" gradientUnits="userSpaceOnUse" gradientTransform="translate(42.1876 39.5591) rotate(47.5318) scale(146.315 228.053)">
<stop stop-color="#B78BF4"/>
<stop offset="1" stop-color="#0A84FF"/>
</radialGradient>
</defs>
</svg>
