<svg width="1123" height="1644" viewBox="0 0 1123 1644" fill="none" xmlns="http://www.w3.org/2000/svg">
<path d="M1001.95 399.902C940.43 366.211 877.441 338.379 812.988 316.406C750 294.434 690.674 283.447 635.01 283.447C566.162 283.447 511.963 297.363 472.412 325.195C432.861 353.027 413.086 394.775 413.086 450.439C413.086 488.525 427.734 522.949 457.031 553.711C487.793 583.008 526.611 609.375 573.486 632.812C621.826 656.25 671.631 677.49 722.9 696.533C785.889 719.971 846.68 750 905.273 786.621C963.867 821.777 1012.21 870.85 1050.29 933.838C1088.38 995.361 1107.42 1077.39 1107.42 1179.93C1107.42 1261.96 1086.18 1338.14 1043.7 1408.45C1001.22 1478.76 938.965 1535.89 856.934 1579.83C774.903 1622.31 673.828 1643.55 553.711 1643.55C461.426 1643.55 366.943 1629.64 270.264 1601.81C175.049 1573.98 84.9609 1530.03 0 1469.97L140.625 1221.68C196.289 1262.7 260.01 1296.39 331.787 1322.75C403.564 1349.12 468.018 1362.31 525.146 1362.31C563.232 1362.31 601.318 1357.18 639.404 1346.92C678.955 1335.21 711.182 1316.16 736.084 1289.8C762.451 1263.43 775.635 1226.81 775.635 1179.93C775.635 1147.71 764.648 1118.41 742.676 1092.04C722.168 1065.67 693.603 1041.5 656.982 1019.53C621.826 997.559 583.008 978.516 540.527 962.403C490.723 943.36 439.453 921.387 386.719 896.484C333.984 871.582 284.18 841.553 237.305 806.396C191.895 769.775 154.541 725.098 125.244 672.363C97.4121 618.164 83.4961 552.246 83.4961 474.609C83.4961 380.859 104.004 299.561 145.02 230.713C187.5 161.865 246.826 107.666 322.998 68.1151C399.17 27.0994 487.061 4.39447 586.67 0C717.041 0 822.51 15.3807 903.076 46.1424C985.107 76.9042 1058.35 113.525 1122.8 156.006L1001.95 399.902Z" fill="url(#paint0_linear_11_107)"/>
<defs>
<linearGradient id="paint0_linear_11_107" x1="-433.593" y1="-802.734" x2="-1321.68" y2="358.317" gradientUnits="userSpaceOnUse">
<stop stop-color="#B78BF4"/>
<stop offset="0.483154" stop-color="#2B84FC"/>
<stop offset="0.979539" stop-color="#B386F0"/>
</linearGradient>
</defs>
</svg>
